<svg xmlns="http://www.w3.org/2000/svg" version="1.0" viewBox="155.98 152.07 199.97 205.23">
    <path d="M249.2 156.7c-3.5 2.5-7 5.6-7.9 6.9-1.2 1.9-2.4 2.4-5.7 2.4-3.5 0-5.4.8-10.4 4.6l-6.2 4.6v16.6l11.7 8.4c6.5 4.6 14.3 10 17.3 12l5.5 3.8.3-18.8.3-18.7-3.1-2.5c-2.9-2.4-3.1-2.9-2.8-8 .3-5.2.5-5.6 4.2-7.6l3.9-2.2 4.4 2.1 4.3 2.1v5.7c0 5.4-.2 5.9-3 7.6l-3 1.7v18.9c0 14.8.3 18.7 1.3 18.1 2.3-1.3 17.2-11.4 25.2-17.2l8-5.7.3-7.6.3-7.7-6.1-5.1c-5.4-4.5-6.7-5.1-10.7-5.1-3.7 0-4.9-.5-6.6-2.6-2.1-2.7-13.4-11.5-14.6-11.3-.3 0-3.4 2.1-6.9 4.6zm-9.2 18.5c3.9 2.2 4 2.4 4 7.8 0 5.2-.2 5.7-3.2 7.5-5.5 3.3-6.3 3.4-10.4 1.1-3.8-2.1-3.9-2.3-4.2-8.2l-.3-6 4.3-2.1c5.4-2.7 5.1-2.7 9.8-.1zm43.1.3c4 2.6 4 2.6 3.7 8.3-.3 5.7-.3 5.7-4.9 8.2l-4.7 2.4-4.1-2.7c-4-2.7-4.1-2.8-4.1-8.5v-5.8l4.3-2.2c5.2-2.7 4.9-2.7 9.8.3z"/>
    <path d="M202 186.5c-7.1 5.2-7.8 5.5-13.1 5.3-5.2-.1-6.1.2-10.7 3.8-3.7 2.8-5.2 4.8-5.6 6.9-.2 1.6-1.2 8.4-2.1 15-.9 6.6-2.1 13.1-2.6 14.5-.6 1.4-3.5 4.2-6.5 6.3l-5.4 3.8v6.9c0 5.9.3 7.1 2.2 8.4 1.2.8 2.5 1.3 3 1 .4-.3.8-3.8.8-7.7v-7.3l6.7-4.9c4-3 7-6 7.4-7.5.4-1.4.7-7.9.8-14.6.1-13.3.1-13.4 7.2-18.3 6.3-4.4 7.9-3.6 7.9 4v5.9l-5 3.2-5 3.3v9.3c0 5.1-.5 10.2-1 11.2-.6 1.1-3.9 4-7.5 6.5l-6.5 4.7V265l6.5 5.1 6.5 5.1v5.3c0 4.5-.4 5.5-2.5 6.9-2.2 1.5-2.5 2.3-2.5 8v6.4l4.6 2.7 4.7 2.8 5.4-2.3 5.4-2.2 4.4 3.1 4.4 3.2 4.3-2.2c2.4-1.2 7.1-4.1 10.6-6.5 3.5-2.4 6.7-4.4 7.3-4.4.5 0 3.2 1.7 5.9 3.7l5 3.7v18.1c0 17.3.1 18.1 2.1 19.4 1.8 1.1 2.3 1.1 3-.1.5-.7.9-9.9.9-20.5v-19.2l-7.7-5.5c-4.3-3.1-8.5-5.6-9.3-5.6-.9 0-4.5 2-8.1 4.5-6.5 4.5-9.2 5.4-10.5 3.4-.8-1.4 3.3-4.9 11.4-9.5 3.4-2 6.2-3.9 6.2-4.4 0-.4-1.3-1.3-2.8-1.9-2.7-1.1-3.5-.8-13.8 6.3-7.8 5.4-11.5 7.4-13 7-1.6-.4-2.4.1-3.4 2.6-2.2 5.3-6.8 6.5-11.4 2.9-2.1-1.6-2.6-2.9-2.6-6.3 0-3.9.3-4.4 3.5-5.9 4.6-2.2 4.8-2.2 8.5.9l3.1 2.6 4.4-2.8c19.4-12.5 19.4-12.5 19.4-17.5.1-5.3 1.4-6.8 8.2-9.8 2.5-1.1 5.4-2.9 6.4-4.1 1.4-1.6 3-2 7.7-2h5.8v-4.5c0-3.6.4-4.6 2.3-5.6 5.8-3 6.7-4.7 6.7-13.3 0-4.5-.4-8.6-.8-9.1-.9-1.3-14.7-11.5-15.6-11.5-.3 0-.6 3.5-.6 7.8 0 7.3-.2 8-2.8 10.5-2.7 2.6-3.2 2.7-13.7 2.7-10.4 0-11 .1-15.7 3.1l-4.8 3.1-5-3.2c-4.9-3.2-5-3.3-5-8.4 0-5 .1-5.2 4.7-8l4.6-3 4.6 2.6c3.3 1.8 4.7 3.2 4.9 5.1.4 3.1 2.3 3.7 11.7 3.7 10.3 0 11.5-1.1 11.5-10.8 0-8.4-.4-9.5-4.2-12-1.4-.9-5.3-3.6-8.7-6l-6.1-4.3V188c0-8.8-.9-9-11-1.5zM188 247c4.3 2.8 4.4 3 4.1 7.7-.3 5.2-.7 5.9-6.2 9.1l-3.6 2.2-4.7-3-4.7-3 .3-5.2c.3-4.8.6-5.4 4.3-8 2.2-1.5 4.5-2.7 5-2.8.6 0 3 1.3 5.5 3zm24.6-.3c4.3 2.8 4.4 2.9 4.4 8.3 0 5.5 0 5.5-4.5 8.3-2.5 1.5-4.8 2.7-5.1 2.7-.3 0-2.5-1.4-5-3-4.2-3-4.4-3.3-4.4-8 0-4.9.1-5.1 4.8-8 2.6-1.6 4.9-3 5.1-3 .2 0 2.3 1.2 4.7 2.7zM299 187.9v6.9l-8.9 6.3c-7.8 5.5-9 6.7-9.5 9.8-.9 5.5-.7 12 .4 14.1 1.2 2.3 9.5 3.5 16.9 2.5 4-.5 5-1.1 5.3-2.8.2-1.2 2.2-3.4 4.4-5 4.7-3.3 6.6-3.1 11.4 1 2.6 2.1 3 3.2 3 7.3 0 4.7-.1 4.9-5 8l-4.9 3.2-4.6-3.2c-4.5-3.1-4.7-3.1-15.4-2.9-10.2.2-11.1.1-13.9-2.2-3-2.3-3.1-2.7-3.1-10.7-.1-4.5-.3-8.2-.7-8.2-.3 0-3.9 2.5-8 5.5L259 223V241.7l4 2.8c3.6 2.5 4 3.2 4 7.1v4.4h6c5.7 0 6.3.2 10.5 4.1 4.4 4.1 4.5 4.2 4.5 10.6v6.5l2.8-.7c2.2-.4 3.6.1 6.9 3 2.6 2.2 4.3 3.1 4.5 2.3.3-.8 3 .7 7.4 3.8 3.8 2.8 7.5 5.4 8.2 5.8.7.4 2.5-.3 4.3-1.8 3.7-3.1 4.5-3.2 8.7-.6 2.7 1.7 3.2 2.6 3.2 5.8 0 8.9-11 11.4-13.8 3.2-.7-2-1.6-2.8-2.6-2.4-1.7.7-4.4-.7-11.2-5.7-2.9-2.1-5.4-3.5-5.8-3.2-.3.4-.6 2.1-.6 3.8 0 2.7-.7 3.7-4.1 6-2.5 1.6-4.9 2.5-6.1 2.1-1.4-.3-3.4.6-5.9 2.6l-3.9 3.1v14.9c0 13.8.1 14.8 1.9 14.8 3.1 0 4-2.2 4.3-11 .3-8.8.6-9.3 4.9-7.6 1 .4 3.4-.8 6.7-3.5 4.2-3.3 5.8-4 7.9-3.4 2 .5 3.6-.1 7.1-2.6 4.3-3.1 4.6-3.2 7.6-1.6 4.9 2.4 7.7 2.7 10.8 1.1 5.3-2.8 6.8-5 6.8-10.4 0-4.3-.4-5.2-3-7.2-2.7-1.9-3-2.7-3-7.5V275l6.5-4.7 6.5-4.7v-19.2l-7.2-5.5-7.3-5.5-.3-10.4-.3-10.5-4.9-3.4-5-3.3V202c0-7.8 2.1-8.4 9.6-2.9 5.3 3.9 5.4 4 5.4 9.2 0 2.9.3 9.6.7 15l.6 9.7 7.5 5.7 7.4 5.8-.4 7.3c-.3 4-.2 7.4.1 7.6.3.2 1.6-.4 2.9-1.4 1.9-1.6 2.2-2.7 2.1-9.2v-7.3l-5.9-4.2c-5.4-3.9-5.9-4.5-6.5-9-.4-2.6-1.3-8.3-2.1-12.7-.8-4.3-1.4-9.5-1.4-11.6 0-3.4-.6-4.2-5.6-8-5.1-4-5.9-4.3-11-4.1-5 .2-5.8-.1-11.2-4.2-11.8-9-13.2-9-13.2.2zm10.3 59.1c4.4 2.8 4.7 3.2 4.7 7.3 0 4.9-1 6.5-6.2 9.6l-3.7 2.2-5-3.1c-4.8-3-5.1-3.4-5.1-7.3 0-2.3.4-4.8.9-5.5.8-1.3 8-6.1 9.2-6.2.3 0 2.6 1.3 5.2 3zm25.3 0c4.2 3 4.4 3.3 4.4 8s-.2 5-4.6 8.1l-4.5 3.1-4.7-2.9c-4.6-2.8-4.7-3-5-8.5l-.3-5.5 4.3-2.6c2.4-1.5 4.7-2.6 5.1-2.7.5 0 2.8 1.4 5.3 3z"/>
    <path d="M243 260.8c-.8.2-3 1.4-4.8 2.5-2.4 1.4-3 2.3-2.3 3 1.2 1.2 1.4 6.8.5 10.4-.3 1.2-2.5 3.2-5 4.5-2.4 1.2-4.4 2.5-4.4 2.8 0 .3 2.4 2 5.4 3.8 3 1.8 7.7 5 10.5 7.2l5.1 4v52.5l4.1 2.9 4.1 2.9 4.1-3c3.8-2.7 4.2-3.3 4.2-7.4.1-2.4.2-14.4.3-26.7l.2-22.2 4.6-3.3c2.5-1.7 5.7-3.4 7.2-3.7 2.4-.5 2.7-1 3-5 .2-2.5.7-4.9 1.3-5.5.5-.5.9-4 .9-7.7 0-6.3-.3-7.1-2.7-9.3-4-3.5-11.6-3.5-16.4 0l-3.4 2.6-.5 42.2-.5 42.2-2.2.3-2.3.3v-42c0-40.4-.1-42.2-1.9-44-2.8-2.8-7.3-4.9-9.1-4.3z"/>
    <path d="m274.6 297-4.7 3.9-.2 20c-.1 10.9.1 20.2.5 20.6.3.4 1.6.2 2.7-.5 2-1 2.1-1.8 2.1-20v-18.9l4-2.8c2.2-1.5 4-3 4-3.3 0-.3-.8-1-1.9-1.7-1.5-1-2.5-.5-6.5 2.7zM218 306.6l-6.2 4.7 2.3 1.8c3.1 2.4 3.4 2.4 7.5-.8 2.1-1.6 3.9-2.2 4.4-1.7.5.5 1.1 5.9 1.2 11.9.3 10.5.4 11 2.6 11.3 2.2.3 2.2.3 2.2-13.6 0-12-.2-14.1-1.7-15.4-3.8-3.4-5.8-3.1-12.3 1.8z"/>
</svg>